<svg xmlns="http://www.w3.org/2000/svg" viewBox="0 0 276 189.84">
    <path strokeWidth="0"
        d="M106.73 35.86C78.57 15.18 46.32 2.43 11.9.03 5.47-.42 0 4.66 0 11.1v124.54c0 5.91 4.63 10.72 10.53 11.08 37.92 2.34 73.24 17.23 103.41 41.46 4.86 3.9 12.06.51 12.06-5.72V73.75c0-14.98-7.19-29.02-19.27-37.89zM169.27 35.86C197.43 15.18 229.68 2.43 264.1.03c6.43-.45 11.9 4.63 11.9 11.08v124.54c0 5.91-4.63 10.72-10.53 11.08-37.92 2.34-73.24 17.23-103.41 41.46-4.86 3.9-12.06.51-12.06-5.72V73.76c0-14.98 7.19-29.02 19.27-37.89z" />
</svg>