<svg xmlns="http://www.w3.org/2000/svg" viewBox="0 0 276.03 276" fill="white">
    <path
        d="M106.73 79.28C78.57 58.6 46.32 45.85 11.9 43.45 5.47 43 0 48.08 0 54.52v124.54c0 5.91 4.63 10.72 10.53 11.08 37.92 2.34 73.24 17.23 103.41 41.46 4.86 3.9 12.06.51 12.06-5.72V117.17c0-14.98-7.19-29.02-19.27-37.89zm62.54 0c28.16-20.68 60.41-33.43 94.83-35.83 6.43-.45 11.9 4.63 11.9 11.08v124.54c0 5.91-4.63 10.72-10.53 11.08-37.92 2.34-73.24 17.23-103.41 41.46-4.86 3.9-12.06.51-12.06-5.72V117.18c0-14.98 7.19-29.02 19.27-37.89z" />
    <path fill="none" d="M.03 0h276v276H.03z" />
</svg>